<?xml version="1.0" standalone="no"?>
<!DOCTYPE svg PUBLIC "-//W3C//DTD SVG 20010904//EN"
 "http://www.w3.org/TR/2001/REC-SVG-20010904/DTD/svg10.dtd">
<svg version="1.0" xmlns="http://www.w3.org/2000/svg"
 width="1080.000000pt" height="1080.000000pt" viewBox="0 0 1080.000000 1080.000000"
 preserveAspectRatio="xMidYMid meet">
<metadata>
Created by potrace 1.14, written by Peter Selinger 2001-2017
</metadata>
<g transform="translate(0.000000,1080.000000) scale(0.100000,-0.100000)"
fill="#000000" stroke="none">
<path d="M0 5400 l0 -5400 5400 0 5400 0 0 5400 0 5400 -5400 0 -5400 0 0
-5400z m3015 1659 c107 -13 250 -48 332 -81 124 -50 273 -149 377 -249 l99
-95 -178 -177 c-98 -97 -180 -177 -182 -177 -2 0 -31 28 -66 63 -57 58 -156
131 -232 170 -16 8 -64 26 -105 38 -65 21 -95 24 -230 24 -121 0 -168 -4 -215
-18 -90 -28 -151 -65 -206 -125 -63 -69 -83 -133 -77 -246 5 -102 31 -157 107
-230 90 -84 181 -130 500 -248 321 -119 407 -158 534 -242 192 -126 324 -327
357 -542 20 -130 16 -343 -10 -450 -22 -97 -77 -215 -136 -295 -56 -77 -180
-185 -266 -234 -90 -50 -236 -108 -330 -130 -182 -42 -506 -44 -699 -5 -275
56 -519 203 -728 439 l-60 68 174 174 c96 96 178 175 182 176 4 1 23 -20 42
-48 19 -27 71 -83 115 -123 118 -105 215 -160 355 -199 107 -29 415 -32 506
-4 164 51 262 123 311 229 26 57 29 73 29 168 0 97 -2 110 -31 170 -40 85 -76
125 -169 189 -93 65 -152 92 -375 171 -384 137 -439 161 -585 258 -176 116
-272 249 -322 441 -21 81 -25 119 -25 246 0 259 53 413 202 578 217 240 612
364 1005 316z m5172 -18 c244 -50 453 -163 625 -338 l68 -68 -180 -180 -179
-179 -53 55 c-94 100 -223 182 -343 219 -109 34 -302 39 -419 11 -214 -51
-316 -165 -316 -351 0 -147 51 -229 208 -331 73 -48 139 -76 508 -213 310
-115 433 -184 565 -316 131 -131 205 -295 229 -506 47 -408 -129 -752 -470
-924 -208 -104 -352 -134 -655 -134 -189 1 -235 4 -324 23 -180 38 -344 111
-486 214 -74 54 -228 198 -276 258 l-29 36 178 177 177 177 23 -28 c71 -89
103 -121 169 -178 83 -71 203 -134 320 -167 69 -20 101 -23 268 -23 182 0 193
2 269 28 148 52 229 114 278 215 31 63 33 72 32 172 0 96 -3 111 -31 172 -65
139 -215 243 -485 337 -214 73 -393 142 -474 180 -273 131 -431 305 -496 546
-31 119 -32 366 0 483 65 241 220 421 470 546 78 39 254 89 373 105 112 15
337 6 456 -18z m-1577 -256 l0 -235 -520 0 -520 0 0 -1365 0 -1365 -262 2
-263 3 -3 1363 -2 1362 -520 0 -520 0 0 235 0 235 1305 0 1305 0 0 -235z
m3230 -2341 c234 -69 319 -334 173 -536 -115 -158 -377 -172 -508 -26 -121
134 -122 353 -2 469 101 98 215 129 337 93z"/>
</g>
</svg>
